<?xml version="1.0" standalone="no"?>
<!DOCTYPE svg PUBLIC "-//W3C//DTD SVG 20010904//EN"
 "http://www.w3.org/TR/2001/REC-SVG-20010904/DTD/svg10.dtd">
<svg version="1.0" xmlns="http://www.w3.org/2000/svg"
 width="939.000000pt" height="939.000000pt" viewBox="0 0 939.000000 939.000000"
 preserveAspectRatio="xMidYMid meet">
<metadata>
Created by potrace 1.11, written by Peter Selinger 2001-2013
</metadata>
<g transform="translate(0.000000,939.000000) scale(0.100000,-0.100000)"
fill="#000000" stroke="none">
<path d="M3770 9370 c-96 -32 -171 -113 -190 -203 -8 -37 -10 -597 -8 -1992 2
-1067 6 -1948 9 -1957 14 -45 76 -123 120 -151 26 -16 51 -29 56 -29 4 0 16
-4 26 -9 18 -10 1760 -14 1806 -4 37 7 105 41 120 59 8 9 20 16 29 16 8 0 13
3 9 6 -3 4 4 21 17 38 22 30 34 54 43 86 3 8 6 99 8 201 2 103 5 190 6 195 1
5 0 14 -1 19 -5 27 -1 465 4 474 4 6 4 11 -1 11 -4 0 -8 681 -8 1513 0 1447
-1 1514 -18 1560 -23 59 -87 125 -152 157 l-50 24 -888 1 c-798 1 -894 0 -937
-15z"/>
<path d="M1488 6954 c-3 -2 -54 -6 -114 -8 -89 -2 -118 -7 -157 -25 -57 -28
-110 -79 -140 -135 l-22 -41 -3 -1965 c-2 -1730 0 -1969 13 -2002 8 -21 13
-38 10 -38 -3 0 6 -12 19 -27 14 -16 26 -32 28 -38 5 -19 83 -65 135 -81 45
-13 164 -15 915 -15 622 1 876 4 910 12 84 21 174 107 204 194 7 20 10 669 9
1990 l0 1960 -23 42 c-33 63 -75 107 -134 138 -52 28 -56 29 -243 32 -104 1
-195 5 -202 7 -6 3 -14 2 -17 -1 -3 -4 -52 -5 -108 -4 -57 1 -109 2 -115 2 -7
0 -78 0 -158 0 -80 0 -152 0 -160 0 -8 0 -80 0 -160 0 -80 0 -152 0 -160 0 -8
0 -80 -1 -159 -2 -80 0 -149 1 -154 5 -5 3 -12 3 -14 0z"/>
<path d="M6520 6952 c0 -4 -48 -7 -108 -7 -96 -1 -112 -4 -157 -27 -65 -34
-113 -82 -139 -138 -21 -44 -21 -60 -26 -810 -6 -927 3 -3156 12 -3189 4 -13
14 -34 23 -47 8 -13 13 -24 10 -24 -13 0 83 -82 110 -94 48 -22 88 -34 110
-35 11 0 404 -1 873 -1 778 -1 859 0 908 16 30 9 54 21 54 25 0 5 4 8 10 6 14
-3 89 72 104 107 27 61 33 92 32 179 -1 48 2 87 6 87 4 0 5 7 1 15 -8 23 -9
465 -1 465 4 0 5 7 1 15 -8 23 -9 465 -1 465 4 0 5 7 1 15 -8 23 -9 465 -1
465 4 0 5 7 1 15 -8 23 -9 625 -1 625 4 0 5 7 2 15 -3 8 -7 380 -7 827 l-2
813 -24 47 c-26 54 -81 107 -143 139 -35 18 -64 23 -153 27 -60 2 -117 3 -125
3 -106 -4 -392 -1 -400 4 -5 3 -10 3 -10 -2 0 -9 -443 -8 -466 1 -8 3 -14 2
-14 -2 0 -8 -445 -6 -466 2 -8 3 -14 2 -14 -2z"/>
<path d="M3880 4870 c-9 -6 -10 -10 -3 -10 6 0 15 5 18 10 8 12 4 12 -15 0z"/>
<path d="M3819 4759 c-78 -13 -177 -79 -210 -139 -40 -73 -39 -23 -39 -2032 0
-1475 3 -1948 12 -1988 10 -42 23 -64 67 -109 30 -31 53 -60 52 -64 -1 -5 3
-6 9 -2 6 4 16 2 23 -3 16 -13 68 -26 91 -23 12 2 16 -1 11 -10 -6 -8 -4 -10
5 -4 19 11 109 12 103 1 -4 -5 -2 -6 4 -3 17 11 63 16 63 7 0 -5 13 -5 30 0
21 6 28 5 24 -2 -5 -7 -2 -8 6 -3 16 10 120 12 113 3 -2 -5 6 -4 19 0 29 9 49
9 67 -2 7 -5 16 -5 20 0 5 8 49 10 76 4 6 -1 14 -2 18 -1 36 6 107 6 107 0 0
-4 14 -4 30 1 21 6 28 5 24 -2 -5 -7 -2 -8 6 -3 16 10 120 12 113 3 -2 -5 6
-4 19 0 29 9 49 9 67 -2 7 -5 16 -5 20 0 5 8 49 10 76 4 6 -1 14 -2 19 -1 35
7 116 5 116 -2 0 -4 5 -5 12 -1 15 9 237 11 231 2 -2 -5 6 -4 19 0 13 4 30 7
38 6 8 -1 21 -2 28 -3 7 0 10 -7 7 -13 -4 -7 -1 -6 7 2 14 16 88 24 88 9 0 -5
7 -6 15 -3 25 10 109 11 129 1 12 -6 16 -5 12 1 -3 5 12 12 34 16 46 7 122 59
162 109 57 73 55 12 55 1497 1 751 2 1370 3 1375 1 6 2 12 0 15 -1 3 -2 262
-4 575 -2 566 -2 570 -24 615 -37 76 -102 132 -183 159 -27 9 -263 12 -896 14
-473 1 -875 -1 -894 -4z"/>
<path d="M2750 2526 c0 -2 8 -10 18 -17 15 -13 16 -12 3 4 -13 16 -21 21 -21
13z"/>
<path d="M7740 2510 c-9 -6 -10 -10 -3 -10 6 0 15 5 18 10 8 12 4 12 -15 0z"/>
</g>
</svg>
